<?xml version="1.0" encoding="UTF-8" standalone="no"?>
<!DOCTYPE svg PUBLIC "-//W3C//DTD SVG 1.1//EN" "http://www.w3.org/Graphics/SVG/1.1/DTD/svg11.dtd">
<svg width="100%" height="100%" viewBox="0 0 512 512" version="1.1" xmlns="http://www.w3.org/2000/svg" xmlns:xlink="http://www.w3.org/1999/xlink" xml:space="preserve" xmlns:serif="http://www.serif.com/" style="fill-rule:evenodd;clip-rule:evenodd;stroke-linejoin:round;stroke-miterlimit:2;">
    <path d="M512,64L0,64L0,400L0,448L512,448L512,400L512,112L512,64ZM464,112L464,152.805C441.578,171.064 332.419,244.157 256,303.996C239.159,317.243 279.212,304.367 256,303.996C232.792,304.371 272.834,317.238 256,303.996C179.593,244.166 70.425,171.067 48,152.805L48,112L464,112ZM48,400L48,214.398C70.914,232.649 206.471,339.429 256,378.213C280.354,353.858 231.646,353.859 256,378.213C305.528,339.43 441.085,232.651 464,214.399L464,400L48,400Z" style="fill-rule:nonzero;"/>
</svg>
